PathFileType	4	(X/Y/Z)	s09c0402.trc
DataRate	CameraRate	NumFrames	NumMarkers	Units	OrigDataRate	OrigDataStartFrame	OrigNumFrames
200	200	6	50	mm	200	750	2000
Frame#	Time	racr			lacr			c7			jug			rlel			rdr			llel			ldr			s2			lic			ric			lasi			rasi			rpsi			lpsi			rgt			lgt			rth1			rth2			rth3			rth4			rlfc			rmfc			rsh1			rsh2			rsh3			rsh4			rlmal			rmmal			rcal			rtoe			rmt5			lth1			lth2			lth4			lth3			llfc			lmfc			llmal			lmmal			lcal			lmt5			lsh1			lsh2			lsh3			lsh4			ltoe			SBIKE			LBIKE			RBIKE			
		X1	Y1	Z1	X2	Y2	Z2	X3	Y3	Z3	X4	Y4	Z4	X5	Y5	Z5	X6	Y6	Z6	X7	Y7	Z7	X8	Y8	Z8	X9	Y9	Z9	X10	Y10	Z10	X11	Y11	Z11	X12	Y12	Z12	X13	Y13	Z13	X14	Y14	Z14	X15	Y15	Z15	X16	Y16	Z16	X17	Y17	Z17	X18	Y18	Z18	X19	Y19	Z19	X20	Y20	Z20	X21	Y21	Z21	X22	Y22	Z22	X23	Y23	Z23	X24	Y24	Z24	X25	Y25	Z25	X26	Y26	Z26	X27	Y27	Z27	X28	Y28	Z28	X29	Y29	Z29	X30	Y30	Z30	X31	Y31	Z31	X32	Y32	Z32	X33	Y33	Z33	X34	Y34	Z34	X35	Y35	Z35	X36	Y36	Z36	X37	Y37	Z37	X38	Y38	Z38	X39	Y39	Z39	X40	Y40	Z40	X41	Y41	Z41	X42	Y42	Z42	X43	Y43	Z43	X44	Y44	Z44	X45	Y45	Z45	X46	Y46	Z46	X47	Y47	Z47	X48	Y48	Z48	X49	Y49	Z49	X50	Y50	Z50	
750	3.7500	621.673271	1334.481807	-44.756154	705.425320	1317.909675	-415.264087	654.869331	1412.250856	-233.098447	675.361507	1278.118791	-226.124351	528.168795	1091.916729	20.033699	690.177879	912.316253	-46.643410	557.471130	1104.878429	-539.467871	677.690967	904.049263	-459.524697	220.816651	1159.015147	-321.089541	388.109310	1122.022176	-429.484810	336.573916	1174.441498	-146.368718	409.155608	1065.713385	-389.503556	373.459564	1112.032980	-152.255940	239.559351	1198.205511	-260.467872	263.457239	1184.277562	-370.068555	305.923681	1051.559813	-91.282088	313.269004	984.575678	-460.254723	420.427749	969.108814	-85.865989	503.033596	938.431355	-89.135147	555.258228	868.167891	-84.686010	521.263884	959.394148	-112.714279	606.012236	778.387236	-107.103629	587.616593	758.338894	-208.243769	511.785913	739.840751	-79.982402	447.774124	677.756151	-91.091516	362.587643	656.956801	-88.546508	462.751042	655.575248	-119.741360	276.324521	602.285550	-87.553424	282.430935	610.943320	-163.953266	187.531490	620.943065	-121.670060	399.205766	461.533592	-131.340094	324.864124	494.980191	-64.535935	333.030599	853.665734	-451.925803	367.015497	776.557374	-437.808429	402.161209	782.483864	-423.691799	356.864343	687.609240	-425.986980	355.952959	595.212263	-403.973838	358.454617	582.088324	-306.633879	214.772944	257.285361	-405.941004	237.545495	260.060024	-339.481531	143.530555	244.234254	-370.045831	286.448608	145.469403	-430.589768	308.457200	505.003820	-425.730522	301.340500	419.299934	-416.972593	250.607885	346.431383	-413.533535	327.042692	412.894466	-386.831215	378.343774	131.309792	-361.128838	-64.780389	852.490000	-240.914448	21.127106	83.903905	-442.028962	21.114127	83.982989	-43.980212	
751	3.7550	621.151804	1333.194538	-41.687316	706.590408	1317.648107	-411.371568	655.392442	1411.456396	-229.367018	675.182430	1277.141668	-222.811593	526.870358	1090.487443	21.498556	689.870741	912.418128	-45.949010	558.697233	1105.393334	-537.555464	678.245598	903.705971	-459.015042	221.077754	1160.891462	-321.958716	389.136397	1123.158518	-429.161877	335.802285	1176.658582	-146.805684	409.732509	1066.837658	-389.303550	372.560050	1114.025697	-151.708051	239.629327	1200.419815	-261.941335	263.965499	1185.778641	-370.604768	305.645430	1054.887840	-91.466600	314.055311	985.931562	-460.392540	420.343517	972.824658	-86.411701	503.116853	942.699254	-89.718099	555.716020	872.604717	-84.949943	521.033431	963.479261	-113.421212	607.329731	782.843676	-107.388980	589.026246	762.344471	-209.151834	513.572716	742.891709	-80.445983	450.606521	679.588136	-91.412005	365.813345	657.402961	-88.944470	466.059680	657.412454	-119.847039	280.341676	601.283363	-88.073628	285.393056	609.926257	-164.661605	191.587039	617.604671	-121.973885	406.775323	463.816908	-131.016966	331.426150	495.291949	-64.442758	333.167475	854.977999	-452.446375	366.694838	777.508096	-438.313499	401.738391	783.397370	-423.695993	356.108335	688.726011	-426.934110	354.334671	596.135215	-404.314320	356.610781	583.053700	-306.609964	210.877557	259.465024	-406.495972	233.850670	261.741279	-340.592764	139.464098	248.169116	-370.529200	280.178768	145.891061	-430.608333	306.347462	506.609842	-425.991225	298.648606	420.870090	-417.287013	247.383951	348.484860	-413.922420	324.336190	414.250906	-387.211752	371.213790	129.421185	-360.822986	-64.773548	852.515066	-240.826429	21.139505	83.935657	-442.025254	21.113201	83.994970	-43.978182	
752	3.7600	620.722297	1331.867893	-38.656125	707.750277	1317.136763	-407.620987	656.653756	1410.276154	-224.934009	674.945340	1276.014328	-219.471153	525.594520	1089.062281	22.948779	689.630456	912.543680	-45.159471	559.746399	1106.044964	-535.705206	678.760286	903.445934	-458.767060	221.381866	1162.763828	-322.850848	390.069995	1124.343122	-428.684014	335.015214	1178.625849	-147.472581	410.251067	1068.047389	-388.967320	371.495260	1116.155931	-151.453258	239.234288	1202.075823	-261.940286	265.023679	1187.574578	-370.649697	305.773396	1058.334254	-91.136049	314.971499	987.237096	-460.100864	420.161318	976.492657	-86.724016	503.027142	946.755676	-90.164405	556.006633	876.903397	-85.095549	520.333742	967.292656	-113.958151	608.773258	786.721121	-108.011622	591.850306	765.425042	-207.013571	515.578934	745.695044	-80.845447	453.623882	681.119954	-91.500583	368.986205	657.319548	-89.327360	469.257370	659.078251	-119.964703	284.374492	599.663945	-88.683329	289.094293	608.362394	-165.494024	195.305004	613.977327	-122.578392	414.280315	465.824829	-130.531072	337.812086	495.425793	-64.117483	333.469668	856.287138	-452.941496	366.579586	778.685427	-438.727919	401.528419	784.363321	-423.658613	355.680489	689.913894	-427.516456	353.286758	597.151318	-404.713722	355.473823	584.032801	-306.558067	207.121097	261.713039	-406.891250	229.598505	263.555614	-340.721866	135.253814	251.905048	-370.529258	273.636793	146.528470	-430.590053	304.674987	508.132994	-426.144829	296.213423	422.493542	-417.627258	244.300512	350.566056	-414.404956	321.811963	415.544948	-387.471951	364.064554	127.725690	-360.436397	-64.794961	852.560196	-240.714185	21.126145	83.979552	-442.027852	21.122226	83.989652	-43.970431	
753	3.7650	620.311611	1330.445416	-35.760414	708.983562	1316.404138	-403.918440	657.445211	1409.247610	-221.176895	674.642000	1274.671721	-216.161434	524.342225	1087.694290	24.356354	689.419187	912.680357	-44.393168	560.640676	1106.566575	-533.928237	679.091565	903.329648	-458.577311	221.634570	1164.642113	-323.514041	390.783635	1126.161299	-428.190258	334.201358	1180.663927	-147.805439	410.758452	1069.367309	-388.455618	370.650798	1118.107948	-150.932303	239.106009	1204.464480	-262.802620	265.673487	1189.510902	-370.822552	305.501114	1061.406114	-91.222941	315.806191	988.708861	-460.252058	419.800633	979.978660	-86.931965	502.848771	950.586867	-90.517897	556.082573	880.994914	-85.114527	521.081435	970.967142	-114.490888	609.947346	790.023773	-108.318641	593.241110	768.924529	-206.961135	516.371858	747.467794	-81.150070	456.726191	682.284268	-91.233727	371.985082	656.856214	-89.762953	472.268050	660.282088	-120.140311	288.337708	597.702460	-89.273357	292.939409	606.175945	-166.143873	199.035423	609.984440	-123.185068	421.653096	467.570415	-130.065249	344.025756	495.142027	-63.910921	333.949008	857.643995	-453.344262	366.796082	779.933864	-439.076596	401.556579	785.618659	-423.511653	355.613101	691.208656	-428.226943	352.763795	598.146179	-405.016087	354.713745	585.038084	-306.638231	203.214615	264.293907	-407.402511	225.861853	265.614903	-340.775036	131.159084	256.021145	-370.828789	267.202584	147.529166	-430.494665	303.494034	509.521783	-426.361319	294.025559	424.085024	-417.829850	241.341458	352.664197	-414.768372	319.523944	416.867511	-387.706042	356.841607	126.556803	-360.125816	-64.764109	852.606273	-240.585270	21.124179	83.925128	-442.095471	21.114677	83.995628	-43.952734	
754	3.7700	619.978828	1328.984724	-32.999353	710.263093	1315.309412	-400.369345	657.929016	1408.262507	-217.560159	674.120018	1273.052755	-212.781719	523.174848	1086.347753	25.747608	689.327025	912.774075	-43.424315	561.297512	1107.087528	-532.308809	679.245021	903.311619	-458.590206	221.893910	1166.425620	-324.204883	391.414656	1127.673330	-428.088052	333.362997	1182.691872	-148.139281	411.040488	1070.880526	-388.109188	369.823242	1119.971412	-150.439807	239.011473	1206.487109	-263.369162	266.255133	1191.533671	-371.379948	305.136109	1064.544170	-91.357639	316.663274	990.243423	-460.966549	419.316814	983.299487	-87.115058	502.458092	954.388140	-90.845086	555.765353	884.600677	-84.759198	520.530975	974.527607	-114.797850	610.704468	793.080508	-108.136238	594.472489	772.032920	-206.735016	517.924804	748.962394	-81.067003	458.563082	682.379293	-91.927474	374.877524	655.815539	-90.236696	475.245202	660.954466	-120.296442	292.189247	595.275151	-89.964775	296.622156	603.692742	-166.892725	202.690541	605.408333	-123.905740	428.967922	469.134332	-129.483015	350.226042	494.551708	-63.772439	334.542649	858.961961	-453.588507	367.273260	781.227065	-439.313077	401.849119	786.890521	-423.341370	355.986904	692.467810	-428.851869	352.704197	599.175487	-405.306057	354.666963	586.043208	-306.869855	199.241399	267.069433	-407.707234	221.963575	267.975699	-340.568440	127.084930	260.464640	-370.936125	260.632496	148.813638	-430.386583	302.635015	510.923251	-426.553256	292.055376	425.686989	-418.089327	238.386173	355.008496	-415.146645	317.335398	418.127827	-387.869903	349.803665	126.082043	-360.338270	-64.741737	852.644607	-240.451696	21.139662	83.965224	-442.093668	21.120445	84.001254	-43.950839	
755	3.7750	619.702027	1327.465084	-30.363668	711.650715	1314.037217	-396.874920	658.876452	1406.506359	-214.692367	673.564974	1271.241922	-209.189814	522.057752	1084.994784	27.093079	689.153715	912.859847	-42.823614	561.745867	1107.624112	-530.817319	679.395219	903.399862	-458.695800	222.126943	1168.151130	-324.836869	392.053219	1129.184552	-427.960995	332.588787	1184.704399	-148.361316	411.032474	1071.767274	-388.750250	369.237382	1122.137194	-149.317012	238.871214	1208.696331	-264.029637	266.585762	1193.306638	-371.698960	304.703171	1067.279244	-91.375832	317.473998	991.645956	-461.192867	418.509907	986.286448	-87.070314	501.846847	957.617271	-90.841881	554.494671	888.595340	-83.689460	519.959687	977.750346	-114.917652	611.073536	795.919517	-107.731562	595.506565	774.862874	-206.473221	518.990330	750.037442	-80.817608	460.860775	682.298466	-92.067560	377.662472	654.262854	-90.670036	477.974705	661.228483	-120.510327	295.847992	592.367424	-90.726894	300.239354	600.587704	-167.614262	206.227888	600.251242	-124.949998	436.094879	470.239334	-128.896666	356.297595	493.580766	-63.539598	335.412792	860.156308	-453.615766	368.085798	782.568562	-439.408694	402.410185	788.279106	-423.059474	356.826682	693.667001	-429.392385	353.230767	600.017509	-405.612052	355.052771	586.983897	-307.190129	195.172127	270.043795	-407.939309	218.020086	270.478767	-340.247776	122.989979	264.884451	-370.815382	253.990591	150.415769	-430.269402	302.017725	512.365148	-426.716294	290.194284	427.238967	-418.167931	235.546377	357.344722	-415.335906	315.269338	419.420161	-387.965272	342.653203	125.687469	-360.262877	-64.708749	852.666319	-240.329218	21.137278	84.010250	-442.082798	21.131040	84.008240	-43.923592	
